<svg id="Layer_1" data-name="Layer 1" xmlns="http://www.w3.org/2000/svg" viewBox="0 0 1024 1024"><defs><style>.cls-1{fill:#6320ee;}</style></defs><rect width="1024" height="1024" rx="250.19"/><path class="cls-1" d="M717.43,620.1V573.93A129.62,129.62,0,0,0,587.81,444.31h-78V675.38l-24.13,2.16-76.28,6.81L368,688.06l39.78-10.84L485.63,656V274.28L326.92,297.46A23.8,23.8,0,0,0,306.57,321V749.72H587.81A129.62,129.62,0,0,0,717.43,620.1ZM467.6,462a11.56,11.56,0,1,1-11.55-11.57A11.55,11.55,0,0,1,467.6,462Z"/></svg>