<svg id="Layer_1" data-name="Layer 1" xmlns="http://www.w3.org/2000/svg" viewBox="0 0 311.9 107.11"><defs><style>.cls-1{fill:#fff;}</style></defs><rect width="311.9" height="107.11"/><path class="cls-1" d="M69.11,62V55.2A18.93,18.93,0,0,0,50.17,36.27H38.77V70l-3.52.32-11.15,1-6,.55,5.81-1.59,11.38-3.1V11.43L12.06,14.81a3.48,3.48,0,0,0-3,3.44V80.88H50.17A18.93,18.93,0,0,0,69.11,62Zm-36.5-23.1a1.69,1.69,0,1,1-1.69-1.69A1.69,1.69,0,0,1,32.61,38.85Z"/><path class="cls-1" d="M124.3,59.94c0,11.82-8.57,20.94-19,20.94-5.31,0-9.2-1.82-11.82-4.84v3.73H81.63V24.25H93.52V43.84c2.62-3,6.51-4.83,11.82-4.83C115.73,39,124.3,48.13,124.3,59.94Zm-11.9,0c0-5.94-4-9.67-9.44-9.67S93.52,54,93.52,59.94s4,9.68,9.44,9.68S112.4,65.89,112.4,59.94Z"/><path class="cls-1" d="M168.55,40.12V79.77h-11.9V76c-2.14,2.94-6.11,4.84-11.34,4.84-8,0-14.83-5.71-14.83-16.41V40.12h11.89v22.6c0,4.92,3.1,7.22,6.9,7.22,4.37,0,7.38-2.54,7.38-8.17V40.12Z"/><path class="cls-1" d="M215.34,55.42V79.77h-11.9V57.17c0-4.92-3.09-7.22-6.9-7.22-4.36,0-7.38,2.54-7.38,8.17V79.77H177.27V40.12h11.89v3.72C191.3,40.91,195.27,39,200.5,39,208.52,39,215.34,44.72,215.34,55.42Z"/><path class="cls-1" d="M248.09,79.77,235.4,62.24V79.77H223.5V24.25h11.9V57.49l11.89-17.37h13.88L246.74,59.94l14.83,19.83Z"/><path class="cls-1" d="M302.81,40.12,289.25,78.58c-4.45,12.61-11.5,17.61-22.61,17.06V84.53c5.55,0,8.17-1.74,9.92-6.58L260.77,40.12h13.09l8.8,24.27,7.46-24.27Z"/></svg>