<svg id="Layer_1" data-name="Layer 1" xmlns="http://www.w3.org/2000/svg" viewBox="0 0 311.9 294.13"><defs><style>.cls-1{fill:#6320ee;}.cls-2{fill:#fff;}</style></defs><rect y="-0.73" width="311.9" height="294.85"/><path class="cls-1" d="M226,136.22V120.48a44.18,44.18,0,0,0-44.18-44.17H155.19v78.75l-8.23.73-26,2.33-14.09,1.26,13.55-3.69L147,148.44V18.37l-54.08,7.9a8.1,8.1,0,0,0-6.94,8v146.1h95.84A44.17,44.17,0,0,0,226,136.22ZM140.82,82.34a3.94,3.94,0,1,1-3.94-4A3.94,3.94,0,0,1,140.82,82.34Z"/><path class="cls-2" d="M66.37,238.83c0,15.59-11.29,27.62-25,27.62-7,0-12.13-2.41-15.58-6.38V265H10.1V191.76H25.79V217.6c3.45-4,8.58-6.38,15.58-6.38C55.08,211.22,66.37,223.25,66.37,238.83Zm-15.69,0c0-7.84-5.23-12.76-12.44-12.76S25.79,231,25.79,238.83,31,251.59,38.24,251.59,50.68,246.68,50.68,238.83Z"/><path class="cls-2" d="M124.73,212.68V265H109v-4.91c-2.82,3.87-8.05,6.38-15,6.38-10.56,0-19.56-7.53-19.56-21.66V212.68H90.21v29.81c0,6.49,4.08,9.52,9.1,9.52,5.76,0,9.73-3.34,9.73-10.77V212.68Z"/><path class="cls-2" d="M186.44,232.87V265H170.75V235.17c0-6.48-4.08-9.52-9.1-9.52-5.75,0-9.73,3.35-9.73,10.78V265H136.23v-52.3h15.69v4.92c2.82-3.87,8.05-6.38,15-6.38C177.44,211.22,186.44,218.75,186.44,232.87Z"/><path class="cls-2" d="M229.63,265,212.9,241.87V265H197.21V191.76H212.9v43.83l15.69-22.91h18.3l-19,26.15L247.41,265Z"/><path class="cls-2" d="M301.8,212.68l-17.89,50.73c-5.86,16.64-15.16,23.23-29.81,22.49V271.26c7.32,0,10.78-2.3,13.08-8.68l-20.82-49.9h17.26l11.61,32,9.83-32Z"/></svg>